<svg xmlns="http://www.w3.org/2000/svg" xmlns:xlink="http://www.w3.org/1999/xlink" id="Camada_1" x="0px" y="0px" viewBox="0 0 208.38 91" style="enable-background:new 0 0 208.38 91;" xml:space="preserve"><style type="text/css">	.st0{fill:#1E1E1C;}</style><g>	<g>		<g>			<g>				<g>					<path class="st0" d="M36.03,67.17c2.44-0.41,4.28-1.25,5.51-2.51c1.24-1.26,1.85-3.15,1.85-5.67v-0.2      c0-1.56-0.23-2.88-0.7-3.95c-0.47-1.07-1.17-1.93-2.12-2.59c-0.95-0.66-2.12-1.13-3.51-1.42c-1.4-0.29-3.02-0.43-4.85-0.43      c-0.44,0-0.95,0.01-1.54,0.02c-0.59,0.02-1.19,0.03-1.79,0.04c-0.6,0.01-1.18,0.03-1.73,0.04c-0.55,0.01-1,0.03-1.35,0.06      c-0.19,0.03-0.36,0.12-0.49,0.27c-0.14,0.15-0.21,0.32-0.21,0.51v29.03c0,0.22,0.06,0.4,0.18,0.55      c0.13,0.15,0.3,0.22,0.52,0.22h0.41c0.22,0,0.39-0.07,0.51-0.22c0.12-0.15,0.18-0.34,0.18-0.55V67.34      c0.72,0.03,1.4,0.04,2.06,0.04h3.25c0.36,0,0.64,0.01,0.86,0.02c0.22,0.01,0.52,0.01,0.9-0.02l8.76,13.4      c0.06,0.08,0.15,0.17,0.27,0.24c0.12,0.08,0.24,0.12,0.35,0.12h0.53c0.36,0,0.56-0.13,0.62-0.39c0.05-0.26,0-0.53-0.16-0.81      L36.03,67.17z M32.21,65.69h-1.17c-0.48,0-0.98-0.01-1.5-0.02c-0.52-0.01-1.02-0.02-1.5-0.02H26.9v-13.4      c0.63-0.05,1.45-0.09,2.47-0.12c1.01-0.03,1.96-0.04,2.84-0.04c1.53,0,2.89,0.1,4.05,0.31c1.16,0.21,2.15,0.57,2.94,1.1      c0.79,0.52,1.39,1.21,1.79,2.07c0.4,0.86,0.6,1.93,0.6,3.23v0.21c0,1.32-0.19,2.42-0.57,3.29c-0.38,0.87-0.96,1.55-1.73,2.04      c-0.77,0.5-1.74,0.85-2.92,1.06C35.18,65.59,33.8,65.69,32.21,65.69z"></path>					<path class="st0" d="M63.74,50.6H44.3c-0.52,0-0.78,0.23-0.78,0.7v0.37c0,0.41,0.26,0.61,0.78,0.61h8.84v28.09      c0,0.22,0.06,0.4,0.19,0.55c0.12,0.15,0.29,0.22,0.51,0.22h0.41c0.22,0,0.39-0.07,0.51-0.22c0.12-0.15,0.19-0.34,0.19-0.55      V52.29h8.8c0.52,0,0.78-0.2,0.78-0.61V51.3C64.52,50.83,64.26,50.6,63.74,50.6z"></path>					<path class="st0" d="M39.52,40.74c0.53,0,0.8-0.24,0.8-0.71v-0.34c0-0.44-0.27-0.67-0.8-0.67h-10.8c-0.5,0-0.96-0.04-1.36-0.11      c-0.4-0.07-0.74-0.21-1-0.42c-0.27-0.21-0.47-0.51-0.63-0.9c-0.15-0.39-0.23-0.9-0.23-1.55V25.32h14.03      c0.53,0,0.8-0.23,0.8-0.71v-0.42c0-0.45-0.27-0.67-0.8-0.67H25.49v-9.21c0-0.64,0.08-1.16,0.23-1.55      c0.15-0.39,0.36-0.69,0.63-0.9c0.26-0.21,0.6-0.35,1-0.42c0.4-0.07,0.86-0.1,1.36-0.1h10.8c0.53,0,0.8-0.22,0.8-0.67v-0.34      c0-0.47-0.27-0.71-0.8-0.71h-10.8c-1.59,0-2.83,0.34-3.73,1.02c-0.89,0.68-1.34,1.91-1.34,3.66v21.73      c0,1.76,0.45,2.98,1.34,3.66c0.89,0.69,2.13,1.03,3.73,1.03H39.52z"></path>					<path class="st0" d="M45.21,39.71c0.89,0.69,2.14,1.03,3.73,1.03h9.55c0.53,0,0.8-0.24,0.8-0.71v-0.34      c0-0.45-0.27-0.67-0.8-0.67h-9.55c-0.5,0-0.96-0.04-1.36-0.11c-0.41-0.07-0.74-0.21-1.01-0.42c-0.27-0.21-0.48-0.51-0.63-0.9      c-0.15-0.39-0.23-0.9-0.23-1.55V10.42c0-0.22-0.06-0.41-0.19-0.57C45.4,9.7,45.23,9.62,45,9.62h-0.42      c-0.22,0-0.4,0.08-0.52,0.23c-0.13,0.15-0.19,0.34-0.19,0.57v25.62C43.87,37.8,44.32,39.02,45.21,39.71z"></path>					<path class="st0" d="M2.25,40.7c0.95,0.11,1.96,0.19,3.03,0.25c1.08,0.05,2.16,0.08,3.25,0.08c1.31,0,2.66-0.11,4.04-0.33      c1.38-0.23,2.64-0.65,3.77-1.28c1.13-0.63,2.06-1.52,2.78-2.68c0.73-1.16,1.09-2.66,1.09-4.5v-0.71c0-1.87-0.45-3.41-1.36-4.6      c-0.91-1.2-2.17-2.04-3.79-2.51c1.56-0.56,2.79-1.41,3.67-2.58c0.88-1.16,1.32-2.62,1.32-4.37v-0.46      c0-1.57-0.33-2.84-0.98-3.84c-0.65-0.99-1.53-1.76-2.62-2.32c-1.09-0.56-2.33-0.93-3.71-1.13c-1.38-0.2-2.78-0.3-4.21-0.3      c-1.06,0-2.16,0.03-3.29,0.09C4.12,9.55,3.12,9.61,2.25,9.66C2.03,9.69,1.84,9.78,1.68,9.91c-0.15,0.14-0.23,0.33-0.23,0.55      v29.43C1.46,40.4,1.72,40.66,2.25,40.7z M3.3,11.21c0.73-0.03,1.55-0.06,2.47-0.1c0.92-0.04,1.84-0.06,2.77-0.06      c1.23,0,2.42,0.07,3.58,0.2c1.16,0.14,2.19,0.42,3.1,0.84c0.91,0.42,1.63,1.02,2.18,1.8c0.54,0.78,0.81,1.82,0.81,3.1v0.46      c0,0.78-0.1,1.54-0.31,2.26c-0.21,0.72-0.59,1.36-1.15,1.92c-0.56,0.55-1.31,1-2.26,1.34c-0.95,0.34-2.15,0.5-3.6,0.5H3.3      V11.21z M3.3,25.29h7.58c1.48,0,2.7,0.17,3.66,0.52c0.96,0.35,1.73,0.81,2.3,1.38c0.57,0.58,0.97,1.24,1.19,1.99      c0.22,0.75,0.33,1.54,0.33,2.35v0.71c0,1.51-0.28,2.72-0.84,3.66c-0.56,0.93-1.29,1.66-2.2,2.18      c-0.91,0.52-1.95,0.86-3.14,1.02c-1.19,0.17-2.41,0.25-3.66,0.25c-1.04,0-1.94-0.02-2.72-0.08c-0.78-0.06-1.62-0.11-2.51-0.17      V25.29z"></path>					<path class="st0" d="M13.79,52.37c-0.19-0.63-0.52-1.12-0.97-1.46c-0.45-0.34-1-0.51-1.67-0.51c-0.69,0-1.26,0.18-1.71,0.53      C9,51.29,8.68,51.78,8.48,52.41L0.06,80.25c-0.08,0.3-0.08,0.54,0.02,0.74c0.09,0.2,0.28,0.29,0.55,0.29h0.54      c0.13,0,0.27-0.06,0.39-0.16c0.12-0.11,0.21-0.23,0.27-0.37L5.19,69.6h11.84l3.45,11.14c0.11,0.36,0.33,0.54,0.66,0.54h0.49      c0.3,0,0.5-0.09,0.58-0.29c0.08-0.19,0.08-0.44,0-0.74L13.79,52.37z M5.69,67.79l4.52-14.93c0.05-0.22,0.15-0.41,0.29-0.55      c0.13-0.15,0.35-0.22,0.66-0.22c0.3,0,0.52,0.08,0.66,0.25c0.13,0.16,0.23,0.36,0.29,0.57l4.48,14.89H5.69z"></path>					<path class="st0" d="M81.34,50.6H70.72c-1.56,0-2.78,0.33-3.65,1.01c-0.88,0.67-1.32,1.87-1.32,3.6v21.33      c0,1.73,0.44,2.92,1.32,3.6c0.88,0.67,2.1,1,3.65,1h10.61c0.52,0,0.78-0.23,0.78-0.69v-0.34c0-0.44-0.26-0.66-0.78-0.66H70.72      c-0.49,0-0.93-0.03-1.33-0.1c-0.4-0.07-0.72-0.21-0.99-0.41c-0.26-0.2-0.46-0.5-0.61-0.88c-0.15-0.38-0.23-0.89-0.23-1.52      V66.02h13.77c0.52,0,0.78-0.24,0.78-0.7v-0.41c0-0.44-0.26-0.66-0.78-0.66H67.56v-9.04c0-0.63,0.07-1.14,0.23-1.53      c0.15-0.38,0.36-0.68,0.61-0.88c0.27-0.2,0.59-0.34,0.99-0.41c0.4-0.07,0.84-0.1,1.33-0.1h10.61c0.52,0,0.78-0.21,0.78-0.65      V51.3C82.12,50.83,81.86,50.6,81.34,50.6z"></path>					<path class="st0" d="M87.68,40.86c1.04,0.08,2.24,0.12,3.61,0.12c2.02,0,3.66-0.24,4.93-0.71c1.27-0.48,2.26-1.09,2.98-1.87      c0.71-0.76,1.2-1.63,1.45-2.58c0.25-0.95,0.38-1.9,0.38-2.85c0-0.95-0.16-1.8-0.46-2.56c-0.31-0.76-0.77-1.47-1.39-2.14      c-0.62-0.67-1.39-1.32-2.31-1.95c-0.92-0.63-2-1.32-3.23-2.07l-2.69-1.64c-0.93-0.56-1.74-1.09-2.46-1.59      c-0.71-0.51-1.31-1.02-1.78-1.54c-0.48-0.51-0.84-1.06-1.08-1.63c-0.24-0.58-0.36-1.24-0.36-2c0-1.57,0.62-2.75,1.85-3.54      c1.23-0.8,3.25-1.2,6.05-1.2c0.45,0,0.98,0.01,1.6,0.04c0.61,0.03,1.21,0.06,1.78,0.1c0.57,0.04,1.09,0.08,1.54,0.12      c0.45,0.04,0.71,0.06,0.79,0.06c0.42,0.06,0.74,0.04,0.96-0.06c0.22-0.09,0.33-0.29,0.33-0.6v-0.2c0-0.27-0.08-0.46-0.25-0.57      c-0.17-0.11-0.46-0.19-0.88-0.25c-0.31-0.03-0.7-0.07-1.17-0.12c-0.47-0.05-0.98-0.1-1.53-0.12c-0.55-0.03-1.09-0.05-1.63-0.08      c-0.54-0.02-1.04-0.04-1.49-0.04c-1.23,0-2.43,0.1-3.6,0.29c-1.17,0.2-2.22,0.54-3.14,1.03c-0.92,0.49-1.66,1.15-2.22,1.99      c-0.56,0.84-0.84,1.91-0.84,3.19c0,1.01,0.16,1.9,0.48,2.68c0.32,0.78,0.77,1.51,1.36,2.16c0.59,0.66,1.28,1.26,2.09,1.82      c0.81,0.56,1.69,1.13,2.64,1.72l2.64,1.63c1.18,0.73,2.16,1.36,2.97,1.89c0.81,0.53,1.48,1.06,1.99,1.57      c0.52,0.52,0.9,1.06,1.13,1.61c0.24,0.56,0.36,1.23,0.36,2.01c0,0.86-0.11,1.67-0.34,2.43c-0.22,0.76-0.62,1.42-1.2,1.99      c-0.57,0.57-1.36,1.01-2.37,1.34c-1.01,0.32-2.31,0.48-3.91,0.48c-0.59,0-1.18-0.01-1.78-0.04c-0.6-0.03-1.18-0.06-1.75-0.11      c-0.56-0.04-1.08-0.09-1.55-0.13c-0.48-0.04-0.88-0.09-1.22-0.15c-0.22-0.03-0.44,0-0.65,0.09c-0.21,0.08-0.31,0.29-0.31,0.62      v0.17c0,0.3,0.09,0.5,0.27,0.61c0.18,0.11,0.47,0.19,0.86,0.25C85.8,40.69,86.64,40.78,87.68,40.86z"></path>					<path class="st0" d="M74.31,11.42c-0.19-0.64-0.53-1.14-0.99-1.49c-0.46-0.34-1.03-0.52-1.7-0.52c-0.7,0-1.28,0.19-1.74,0.55      c-0.46,0.36-0.79,0.86-0.98,1.51l-8.59,28.35c-0.08,0.31-0.08,0.56,0.02,0.76c0.1,0.19,0.29,0.29,0.57,0.29h0.55      c0.14,0,0.27-0.06,0.39-0.16c0.13-0.12,0.22-0.24,0.28-0.38l3.43-11.35h12.06l3.52,11.35c0.11,0.36,0.33,0.54,0.67,0.54h0.5      c0.31,0,0.5-0.1,0.58-0.29c0.08-0.2,0.08-0.44,0-0.76L74.31,11.42z M66.06,27.13l4.61-15.2c0.05-0.23,0.15-0.41,0.29-0.57      c0.14-0.15,0.36-0.23,0.67-0.23c0.31,0,0.53,0.08,0.67,0.25c0.14,0.17,0.24,0.36,0.29,0.59l4.56,15.16H66.06z"></path>					<path class="st0" d="M100.04,68.92c-0.6-0.66-1.36-1.29-2.27-1.91c-0.9-0.61-1.96-1.29-3.17-2.04l-2.64-1.61      c-0.91-0.55-1.71-1.07-2.41-1.56c-0.7-0.5-1.29-1-1.75-1.5c-0.46-0.51-0.82-1.04-1.06-1.61c-0.23-0.56-0.34-1.21-0.34-1.95      c0-1.54,0.6-2.7,1.81-3.48c1.21-0.78,3.19-1.18,5.94-1.18c0.44,0,0.96,0.01,1.57,0.04c0.6,0.03,1.19,0.06,1.75,0.1      c0.56,0.04,1.07,0.08,1.51,0.13c0.44,0.04,0.7,0.06,0.78,0.06c0.41,0.05,0.72,0.04,0.95-0.06c0.22-0.1,0.32-0.29,0.32-0.59      v-0.2c0-0.26-0.08-0.45-0.25-0.56c-0.16-0.1-0.45-0.18-0.86-0.24c-0.3-0.03-0.68-0.06-1.15-0.12c-0.47-0.05-0.97-0.1-1.5-0.12      c-0.54-0.03-1.07-0.05-1.61-0.08c-0.53-0.03-1.02-0.04-1.46-0.04c-1.2,0-2.38,0.09-3.53,0.29c-1.15,0.19-2.18,0.52-3.08,1.01      c-0.91,0.48-1.63,1.13-2.18,1.96c-0.55,0.82-0.82,1.87-0.82,3.13c0,0.98,0.16,1.86,0.47,2.63c0.31,0.77,0.76,1.48,1.34,2.12      c0.57,0.64,1.26,1.24,2.05,1.79c0.8,0.55,1.66,1.11,2.59,1.69l2.59,1.6c1.15,0.72,2.12,1.33,2.92,1.85      c0.8,0.52,1.44,1.04,1.95,1.54c0.51,0.51,0.88,1.04,1.11,1.58c0.23,0.55,0.35,1.21,0.35,1.98c0,0.85-0.11,1.65-0.33,2.39      c-0.22,0.74-0.61,1.39-1.18,1.95c-0.56,0.57-1.34,1.01-2.33,1.32c-0.99,0.32-2.27,0.48-3.83,0.48c-0.58,0-1.16-0.02-1.75-0.04      c-0.59-0.03-1.16-0.06-1.72-0.1c-0.55-0.04-1.05-0.08-1.53-0.13c-0.46-0.04-0.86-0.09-1.2-0.14c-0.22-0.03-0.43,0-0.63,0.09      c-0.21,0.07-0.31,0.28-0.31,0.6v0.16c0,0.29,0.09,0.5,0.26,0.6c0.18,0.11,0.46,0.19,0.84,0.24c0.63,0.11,1.46,0.2,2.48,0.28      c1.01,0.08,2.2,0.13,3.54,0.13c1.98,0,3.6-0.24,4.84-0.7c1.25-0.46,2.22-1.08,2.93-1.83c0.7-0.75,1.18-1.6,1.42-2.53      c0.25-0.93,0.37-1.87,0.37-2.8c0-0.93-0.15-1.77-0.45-2.51C101.1,70.28,100.64,69.58,100.04,68.92z"></path>				</g>			</g>		</g>	</g>	<path class="st0" d="M176.39,55.7l-0.04,14.08h-2.53l-0.04,0.99h19.92v-0.99h-2.57V58.31l-2.79-1.72v-2.19l-5.9-3.92L176.39,55.7z   M181.98,69.78h-4.66V56.23l4.66-3.87V69.78z M190.18,58.89v10.92h-1.76l-0.04-11.99L190.18,58.89z M182.98,52.09l4.4,2.84v14.85  h-4.4V52.09z"></path>	<path class="st0" d="M161.78,43.54c0.01-0.06,0.02-0.1,0.02-0.11c0-0.02,0-0.04,0-0.06v-0.06c0-0.1-0.02-0.19-0.07-0.25  c-0.05-0.07-0.11-0.12-0.2-0.15c-0.09-0.04-0.2-0.06-0.32-0.08c-0.12-0.02-0.26-0.02-0.41-0.02c-0.09,0-0.2,0-0.3,0.01  c-0.09,0.01-0.18,0.01-0.26,0.01L160,44.2h0.86c0.16,0,0.29-0.02,0.4-0.05c0.11-0.04,0.2-0.08,0.28-0.14  c0.07-0.06,0.12-0.13,0.16-0.21C161.73,43.71,161.76,43.63,161.78,43.54z"></path>	<path class="st0" d="M164.18,42.92c0-0.07-0.03-0.1-0.09-0.1c-0.06,0-0.1,0.03-0.13,0.1l-0.82,1.82h1.23L164.18,42.92z"></path>	<path class="st0" d="M169.15,44.46c0.05,0,0.1,0,0.16,0.01c0.05,0,0.09,0,0.13,0c0.38,0,0.66-0.07,0.85-0.21  c0.19-0.14,0.3-0.35,0.34-0.61l0.01-0.08c0.01-0.07,0.02-0.13,0.02-0.19c0-0.22-0.08-0.37-0.22-0.45c-0.15-0.09-0.38-0.13-0.7-0.13  c-0.09,0-0.19,0-0.3,0.01c-0.11,0.01-0.2,0.01-0.26,0.02l-0.29,1.62c0.03,0,0.08,0,0.12,0.01  C169.05,44.46,169.1,44.46,169.15,44.46z"></path>	<path class="st0" d="M149.93,33.68h24.9l-12.52-21.6L149.93,33.68z M151.66,32.67l4.81-8.39l4.87,8.39H151.66z M157.4,23.77h9.68  l-4.81,8.4L157.4,23.77z M173.04,32.6h-9.68l4.81-8.4L173.04,32.6z M157.47,22.63l4.82-8.4l4.86,8.4H157.47z"></path>	<path class="st0" d="M161.35,44.76c-0.06-0.05-0.13-0.09-0.22-0.12c-0.1-0.03-0.21-0.04-0.35-0.04h-0.85l-0.27,1.52  c0.09,0.01,0.19,0.01,0.28,0.02c0.1,0.01,0.19,0.01,0.29,0.01c0.17,0,0.32-0.01,0.47-0.03c0.14-0.02,0.26-0.06,0.37-0.12  c0.11-0.06,0.19-0.13,0.26-0.23c0.07-0.1,0.12-0.22,0.14-0.37c0.02-0.08,0.03-0.13,0.03-0.16c0-0.04,0-0.07,0-0.09  c0-0.07-0.01-0.15-0.04-0.21C161.44,44.86,161.41,44.81,161.35,44.76z"></path>	<path class="st0" d="M135.26,53.67c-0.78,1.77-0.88,2.35-0.95,2.77l-0.03,0.16c-0.07,0.35,0.11,0.79,0.32,1.24l0.05,0.1  c0.06,0.14-0.08,0.35-0.29,0.66l-0.08,0.11c-0.06,0.07-1.34,1.85-1.47,2.27l-0.05,0.16l0.08,0.15c0.05,0.1,0.28,0.43,1.13,0.59  c0.09,0.02,0.12,0.05,0.13,0.08c0.05,0.09,0.01,0.23-0.07,0.43c-0.08,0.21-0.13,0.36-0.1,0.52c0.05,0.26,0.24,0.39,0.34,0.45  l0.08,0.07l0,0.01l-0.12,0.73c0.05,0.08,0.12,0.17,0.22,0.25c0.09,0.05,0.13,0.29,0.02,0.7c0,0.01-0.17,0.81,0.17,1.37  c0.15,0.24,0.38,0.41,0.66,0.47c0.36,0.08,0.8,0.11,1.22,0.13c0.85,0.05,1.64,0.08,2.02,0.59c0.29,0.39,0.27,0.8,0.24,1.39  c-0.03,0.44-0.06,1.04,0.07,1.79l0.06,0.35h9.01l-0.04-0.45c-0.26-3-0.38-5.08-0.34-5.55c0.09-0.83,0.52-1.64,1-2.55  c0.69-1.27,1.56-2.86,1.56-5.13c0-5.14-4.1-7.49-7.92-7.49C138.86,50.04,136.27,51.4,135.26,53.67z M149.26,57.53  c0,2.06-0.78,3.48-1.48,4.78c-0.5,0.93-0.97,1.81-1.07,2.81c-0.06,0.67,0.15,3.41,0.3,5.25h-7.38c-0.05-0.5-0.03-0.92-0.01-1.28  c0.03-0.63,0.06-1.28-0.41-1.91c-0.61-0.82-1.69-0.88-2.65-0.92c-0.38-0.02-0.77-0.05-1.08-0.11c-0.32-0.07-0.21-0.81-0.21-0.81  c0.21-0.8,0.02-1.24-0.18-1.45l0.14-0.14l-0.07-0.43c-0.05-0.32-0.25-0.49-0.38-0.59c0-0.01,0.01-0.02,0.01-0.03  c0.1-0.28,0.26-0.71,0.02-1.13c-0.14-0.27-0.4-0.44-0.71-0.5c-0.16-0.03-0.28-0.07-0.36-0.09c0.22-0.37,0.67-1.04,1.2-1.76  l0.09-0.12c0.27-0.38,0.63-0.89,0.37-1.49l-0.06-0.12c-0.23-0.5-0.25-0.67-0.24-0.71l0.03-0.18c0.07-0.38,0.15-0.89,0.89-2.57  c0.87-1.97,3.18-3.14,6.16-3.14C145.59,50.87,149.26,52.96,149.26,57.53z"></path>	<path class="st0" d="M173.21,54.51c-0.28,0.28-0.6,0.53-0.96,0.7c-0.37,0.17-0.8,0.24-1.2,0.28c-0.32,0.03-0.61,0.02-0.93-0.03  c-0.53-0.09-0.98-0.42-1.35-0.98c-0.14-0.23-0.22-0.44-0.22-0.64c0-0.34,0.06-0.6,0.17-0.8c0.11-0.19,0.25-0.37,0.43-0.48  c0.21-0.13,0.5-0.19,0.74-0.18c0.16,0.01,0.32,0.05,0.47,0.12c0.06,0.02,0.11,0.06,0.16,0.1c0.12,0.1,0.05,0.27-0.08,0.32  c-0.07,0.03-0.15,0.04-0.23,0.07c-0.14,0.04-0.33,0.08-0.45,0.16c-0.1,0.07-0.17,0.21-0.22,0.33c-0.14,0.32-0.13,0.68,0.01,1  c0.13,0.3,0.36,0.51,0.67,0.61c0.24,0.08,0.5,0.1,0.75,0.1c0.35,0,0.72-0.13,1.09-0.4c0.36-0.24,0.62-0.52,0.81-0.84  c0.16-0.27,0.24-0.59,0.3-0.89c0.09-0.38,0.08-0.75-0.15-1.08c-0.2-0.28-0.54-0.43-0.87-0.44c-0.26-0.01-0.51,0.06-0.75,0.15  c-0.12,0.05-0.24,0.1-0.36,0.15c-0.09,0.04-0.19,0.08-0.29,0.11c-0.08,0.02-0.24,0.01-0.22-0.11c0.01-0.04,0.03-0.09,0.05-0.12  c0.04-0.08,0.1-0.15,0.16-0.21c0,0,2.91-2.98,2.92-2.99c0.04-0.04,0.08-0.07,0.12-0.1c0.03-0.02,0.09-0.09,0.12-0.09  c0.03,0,0.08,0.05,0.11,0.07c0.08,0.06,0.17,0.13,0.26,0.17c0.15,0.08,0.31,0.13,0.48,0.15c0.23,0.03,0.47-0.01,0.68-0.1  c0.22-0.1,0.44-0.2,0.66-0.3c0.03-0.01,0.05,0.02,0.06,0.04c0.02,0.04,0.01,0.07-0.01,0.1c-0.04,0.06-0.07,0.13-0.12,0.19  c-0.06,0.07-0.15,0.11-0.22,0.16c-0.16,0.11-0.33,0.2-0.5,0.28c-0.35,0.16-0.73,0.24-1.11,0.2c0,0-0.01,0-0.01,0  c-0.1-0.01-0.19-0.03-0.29-0.07c-0.09-0.03-0.18-0.11-0.27-0.13c-0.05-0.01-0.1,0.04-0.14,0.07c-0.21,0.17-0.39,0.37-0.57,0.56  c-0.1,0.1-0.19,0.21-0.29,0.31c-0.34,0.37-0.67,0.74-1,1.11c0.02-0.02,0.21-0.01,0.25-0.01c0.11-0.01,0.21-0.01,0.32-0.01  c0.21,0,0.42,0.01,0.63,0.05c0.34,0.07,0.68,0.21,0.91,0.47c0.16,0.18,0.27,0.4,0.33,0.64c0.06,0.28,0.05,0.58-0.04,0.86  c0.12-0.19,0.23-0.39,0.35-0.59c0.13-0.24,0.27-0.47,0.4-0.71c0.17-0.31,0.35-0.61,0.52-0.92c0.21-0.36,0.41-0.72,0.62-1.08  c0.23-0.4,0.45-0.79,0.68-1.19c0.24-0.42,0.48-0.84,0.72-1.26c0.24-0.42,0.49-0.85,0.73-1.27c0.24-0.41,0.48-0.83,0.71-1.24  c0.22-0.39,0.45-0.78,0.67-1.17c0.2-0.35,0.4-0.69,0.6-1.04c0.17-0.29,0.33-0.58,0.5-0.87c0.12-0.22,0.25-0.43,0.37-0.65  c0.07-0.13,0.14-0.25,0.22-0.38c0.01-0.03,0.03-0.05,0.04-0.08h-37.69l9.04,15.71c0.03-0.06,0.05-0.12,0.09-0.18  c0.04-0.02,0.11-0.08,0.21-0.17l0.17-0.04c0.01,0,0.03,0.01,0.04,0.02c0.01,0.01,0.03,0.03,0.04,0.07  c0.13,0.37,0.17,0.71,0.43,1.03c0.36,0.44,0.98,0.7,1.54,0.7c1.52,0,3.11-1.09,4.78-3.27c0.25-0.33,0.47-0.65,0.63-0.94  c0.08-0.17,0.21-0.42,0.39-0.73c-0.57,0.63-1.6,1.42-2.5,0.99c-1.3-0.62-0.7-2.55-0.09-3.44c0.49-0.72,1.26-1.49,2.06-1.86  c0.67-0.31,1.56-0.38,2.06,0.27c0.39,0.51,0.38,1.14,0.29,1.74c-0.12,0.87-0.49,1.83-1.12,2.86c-1.08,1.81-2.65,3.55-4.6,4.43  c-1.08,0.48-2.24,0.7-3.39,0.31l8.83,15.34l10.94-19.1C173.27,54.45,173.24,54.47,173.21,54.51z M168.87,42.42  c0.13-0.01,0.27-0.02,0.43-0.03c0.17-0.01,0.33-0.01,0.49-0.01c0.41,0,0.74,0.08,0.99,0.23c0.25,0.16,0.37,0.4,0.37,0.74  c0,0.07-0.01,0.15-0.02,0.22l-0.01,0.07c-0.04,0.25-0.11,0.46-0.22,0.61c-0.11,0.16-0.24,0.29-0.39,0.38  c-0.16,0.09-0.33,0.16-0.53,0.19c-0.2,0.03-0.41,0.05-0.63,0.05c-0.09,0-0.19,0-0.29-0.01c-0.1-0.01-0.19-0.01-0.26-0.02  l-0.27,1.56c-0.01,0.03-0.02,0.05-0.03,0.08c-0.02,0.02-0.05,0.03-0.09,0.03h-0.3c-0.06,0-0.09-0.04-0.08-0.11l0.67-3.86  C168.73,42.49,168.79,42.44,168.87,42.42z M165.22,46.4l0.04-0.23c0-0.04,0.01-0.06,0.03-0.08c0.01-0.01,0.05-0.01,0.1-0.01  c0.06,0.01,0.13,0.01,0.21,0.02c0.08,0,0.16,0.01,0.24,0.01c0.08,0,0.17,0.01,0.25,0.01c0.08,0.01,0.15,0.01,0.21,0.01  c0.3,0,0.54-0.06,0.71-0.17c0.17-0.12,0.26-0.3,0.26-0.56c0-0.07-0.01-0.12-0.03-0.18c-0.02-0.05-0.05-0.1-0.09-0.15  c-0.04-0.05-0.1-0.1-0.17-0.15c-0.06-0.05-0.15-0.11-0.25-0.18l-0.48-0.32c-0.19-0.13-0.34-0.28-0.44-0.43  c-0.1-0.16-0.16-0.34-0.16-0.54c0-0.19,0.04-0.36,0.12-0.49c0.08-0.13,0.18-0.24,0.31-0.33c0.14-0.08,0.29-0.14,0.46-0.18  c0.17-0.04,0.35-0.06,0.53-0.06c0.08,0,0.17,0,0.27,0c0.1,0,0.2,0.01,0.29,0.02c0.09,0,0.19,0.01,0.27,0.02  c0.09,0.01,0.15,0.02,0.2,0.03c0.04,0.01,0.06,0.02,0.07,0.03c0.01,0.01,0.01,0.03,0,0.06l-0.04,0.24  c-0.01,0.03-0.02,0.06-0.03,0.07c-0.01,0.02-0.04,0.02-0.09,0.02c-0.13-0.01-0.27-0.02-0.44-0.02c-0.18-0.01-0.35-0.01-0.51-0.01  c-0.11,0-0.22,0.01-0.33,0.02c-0.11,0.02-0.21,0.04-0.3,0.08c-0.08,0.04-0.15,0.1-0.21,0.17c-0.05,0.08-0.08,0.17-0.08,0.3  c0,0.06,0,0.12,0.02,0.17c0.02,0.06,0.05,0.1,0.08,0.16c0.04,0.05,0.09,0.1,0.15,0.15c0.06,0.05,0.14,0.1,0.23,0.16l0.45,0.3  c0.13,0.08,0.24,0.17,0.32,0.25c0.09,0.08,0.16,0.16,0.22,0.25c0.06,0.08,0.09,0.17,0.12,0.26c0.03,0.09,0.03,0.18,0.03,0.29  c0,0.19-0.04,0.37-0.11,0.51c-0.08,0.14-0.19,0.27-0.33,0.37c-0.13,0.1-0.3,0.18-0.49,0.22c-0.19,0.05-0.39,0.08-0.61,0.08  c-0.08,0-0.16,0-0.24,0c-0.09,0-0.17-0.01-0.26-0.02c-0.08-0.01-0.16-0.02-0.24-0.03c-0.08-0.01-0.15-0.02-0.21-0.03  c-0.03-0.01-0.06-0.01-0.07-0.03C165.21,46.45,165.21,46.43,165.22,46.4z M153.55,46.43l0.53-3.01c0.03-0.21,0.09-0.38,0.17-0.51  c0.07-0.14,0.17-0.24,0.28-0.32c0.11-0.08,0.25-0.13,0.4-0.16c0.15-0.03,0.32-0.04,0.52-0.04c0.29,0,0.52,0,0.67,0.01  c0.15,0.01,0.28,0.02,0.37,0.03c0.04,0.01,0.06,0.02,0.07,0.03c0.01,0.01,0.01,0.03,0,0.05l-0.05,0.26  c-0.01,0.05-0.03,0.07-0.07,0.07h-1.07c-0.15,0-0.27,0.01-0.36,0.03c-0.09,0.02-0.17,0.05-0.22,0.1c-0.06,0.05-0.1,0.11-0.13,0.18  c-0.03,0.08-0.06,0.16-0.07,0.27l-0.13,0.77h1.7c0.03,0,0.05,0.01,0.07,0.02c0.02,0.02,0.03,0.05,0.02,0.09l-0.03,0.21  c-0.01,0.03-0.02,0.05-0.03,0.08c-0.02,0.02-0.05,0.03-0.1,0.03h-1.7l-0.32,1.81c-0.01,0.03-0.02,0.05-0.04,0.08  c-0.02,0.02-0.05,0.03-0.09,0.03h-0.28c-0.04,0-0.07-0.01-0.09-0.03C153.55,46.48,153.55,46.45,153.55,46.43z M157.88,48.54  c-0.05,0.1-0.11,0.19-0.17,0.28l-4.1,6.41l-1.19,0.14l3.54-5.44c-0.59,0.27-0.95,0.44-1.08,0.5c-0.21,0.1-0.43,0.18-0.65,0.26  c-0.12,0.04-0.23,0.08-0.35,0.11c-0.1,0.03-0.24,0.07-0.33-0.01c-0.06-0.05-0.04-0.14,0-0.2c0.05-0.08,0.13-0.09,0.21-0.12  c0.09-0.03,0.19-0.07,0.28-0.1c0.19-0.07,0.37-0.14,0.56-0.22c0.37-0.16,0.73-0.33,1.09-0.51c0.68-0.36,1.33-0.77,1.94-1.24  c0.06-0.04,0.18-0.13,0.25-0.06C157.92,48.38,157.9,48.49,157.88,48.54z M159.01,44.3l-0.03,0.21c-0.01,0.03-0.02,0.05-0.04,0.08  c-0.02,0.02-0.05,0.03-0.09,0.03h-1.7l-0.17,0.93c0,0.05-0.01,0.09-0.02,0.12c0,0.04-0.01,0.07-0.01,0.1  c0,0.13,0.04,0.22,0.13,0.27c0.09,0.05,0.25,0.08,0.48,0.08h1.05c0.03,0,0.05,0,0.06,0.01c0.01,0.01,0.01,0.03,0.01,0.06  l-0.05,0.27c-0.01,0.02-0.01,0.04-0.01,0.05c-0.01,0.01-0.03,0.02-0.05,0.03c-0.04,0.01-0.11,0.01-0.19,0.01  c-0.09,0.01-0.18,0.01-0.29,0.01c-0.11,0.01-0.21,0.01-0.32,0.01c-0.11,0-0.2,0-0.29,0c-0.32,0-0.57-0.06-0.75-0.2  c-0.17-0.13-0.27-0.33-0.27-0.6c0-0.08,0.01-0.16,0.02-0.23l0.37-2.13c0.04-0.2,0.09-0.37,0.17-0.5c0.07-0.14,0.17-0.24,0.28-0.32  c0.11-0.08,0.25-0.13,0.39-0.17c0.15-0.03,0.33-0.05,0.52-0.05c0.32,0,0.55,0,0.72,0.02c0.16,0.01,0.28,0.02,0.35,0.03  c0.02,0.01,0.03,0.01,0.04,0.02c0.01,0.01,0.01,0.03,0,0.06l-0.05,0.26c0,0.03-0.01,0.05-0.02,0.06c-0.02,0.01-0.03,0.01-0.05,0.01  h-1.07c-0.15,0-0.27,0.01-0.36,0.03c-0.09,0.02-0.16,0.05-0.22,0.1c-0.06,0.05-0.1,0.11-0.13,0.18c-0.03,0.08-0.06,0.16-0.07,0.27  l-0.13,0.77h1.7C158.99,44.19,159.02,44.22,159.01,44.3z M161.36,46.34c-0.16,0.09-0.34,0.15-0.55,0.18  c-0.2,0.03-0.42,0.05-0.66,0.05c-0.19,0-0.36,0-0.51-0.01c-0.16-0.01-0.28-0.02-0.39-0.04c-0.1-0.02-0.15-0.06-0.15-0.14  c0-0.03,0-0.05,0-0.06l0.64-3.69c0.03-0.12,0.1-0.19,0.22-0.21c0.1-0.01,0.22-0.02,0.38-0.03c0.16-0.01,0.33-0.02,0.51-0.02  c0.2,0,0.39,0.02,0.57,0.05c0.17,0.03,0.33,0.08,0.46,0.15c0.13,0.07,0.23,0.16,0.3,0.27c0.07,0.11,0.11,0.25,0.11,0.4v0.1  c0,0.02,0,0.04,0,0.06c0,0.02-0.01,0.06-0.02,0.12c-0.05,0.23-0.13,0.42-0.25,0.56c-0.13,0.13-0.29,0.23-0.49,0.31  c0.15,0.06,0.27,0.16,0.34,0.28c0.08,0.13,0.12,0.28,0.12,0.45c0,0.03,0,0.06,0,0.09c0,0.04-0.01,0.09-0.03,0.17  c-0.04,0.23-0.11,0.43-0.22,0.58C161.65,46.13,161.52,46.25,161.36,46.34z M162.39,46.45c-0.01,0.02-0.02,0.04-0.04,0.06  c-0.02,0.01-0.04,0.02-0.08,0.02h-0.34c-0.05,0-0.07-0.02-0.07-0.07c0-0.02,0-0.04,0.01-0.05l1.66-3.6  c0.08-0.17,0.17-0.28,0.28-0.34c0.11-0.06,0.23-0.08,0.35-0.08c0.06,0,0.11,0,0.16,0.02c0.06,0.01,0.11,0.03,0.15,0.06  c0.04,0.03,0.08,0.07,0.11,0.13c0.03,0.05,0.05,0.12,0.06,0.21l0.39,3.61v0.02c0,0.07-0.03,0.11-0.09,0.11h-0.33  c-0.03,0-0.04-0.01-0.06-0.02c-0.01-0.02-0.02-0.04-0.02-0.06l-0.14-1.27h-1.44L162.39,46.45z M164.06,54.15  c0.16,0.03,0.31,0.1,0.45,0.17c0.52,0.22,1.07,0.63,1.66,0.63c0.29,0,0.55-0.15,0.81-0.44c0.14-0.15,0.33-0.43,0.58-0.83  c0.08-0.14,0.17-0.27,0.27-0.4c0.03-0.04,0.07-0.08,0.11-0.11c0.06-0.05,0.12-0.03,0.15,0.03c0.01,0.01,0.01,0.02,0.01,0.04  c0.01,0.11-0.09,0.25-0.14,0.33c-0.07,0.11-0.14,0.22-0.21,0.34c-0.13,0.21-0.36,0.48-0.7,0.8c-0.34,0.32-0.61,0.53-0.82,0.62  c-0.45,0.2-0.93,0.21-1.4,0.05c-0.45-0.15-0.84-0.44-1.3-0.58c-0.31-0.1-0.64-0.11-0.95,0c-0.17,0.06-0.33,0.16-0.47,0.28  c-0.08,0.07-0.16,0.14-0.25,0.21c-0.05,0.04-0.11,0.1-0.17,0.12c-0.06,0.02-0.18-0.02-0.19-0.09c-0.01-0.03,0.01-0.06,0.02-0.08  c0.14-0.23,0.35-0.41,0.56-0.58c0.27-0.22,0.57-0.42,0.88-0.59c0.26-0.14,0.84-0.41,1.73-0.81c0.65-0.29,1.3-0.61,1.89-1.02  c0.54-0.38,1.2-0.91,1.43-1.55c0.14-0.39,0.12-0.84-0.07-1.21c-0.47-0.89-1.71-1.04-2.42-0.35c-0.3,0.3-0.45,0.67-0.45,1.12  c0,0.17,0.05,0.32,0.14,0.46c0.12,0.18,0.17,0.32,0.43,0.33c0.21,0.01,0.43-0.08,0.54-0.26c0.04-0.06,0.1-0.13,0.15-0.08  c0.02,0.02,0.02,0.05,0.02,0.08c0,0.38-0.29,0.74-0.66,0.84c-0.37,0.1-0.79-0.04-1.04-0.33c-0.25-0.29-0.35-0.7-0.28-1.07  c0.16-0.87,1.09-1.54,1.89-1.78c0.81-0.24,1.72-0.16,2.28,0.54c0.52,0.63,0.46,1.5,0.09,2.19c-0.14,0.25-0.31,0.47-0.51,0.66  c-0.41,0.4-0.94,0.68-1.45,0.93c-0.3,0.15-0.83,0.37-1.59,0.68c-0.45,0.18-0.7,0.28-0.75,0.3c-0.25,0.11-0.47,0.23-0.67,0.36  C163.72,54.07,164.01,54.14,164.06,54.15z"></path>	<path class="st0" d="M161.27,51.94c0.26-0.47,0.41-0.8,0.44-1c0.06-0.43,0.17-0.87,0.09-1.3c-0.04-0.21-0.14-0.46-0.3-0.61  c-0.2-0.18-0.44-0.13-0.68-0.08c-0.21,0.04-0.41,0.12-0.59,0.22c-0.38,0.21-0.7,0.55-0.95,0.9c-0.46,0.64-0.88,1.5-0.86,2.3  c0.01,0.28,0.07,0.57,0.25,0.78c0.44,0.53,1.27,0.12,1.71-0.21C160.73,52.68,161.04,52.34,161.27,51.94z"></path>	<path class="st0" d="M208.12,50.47c-1.28,0.42-2.07,1.02-2.71,1.31c3.8-5.21,3.46-10.18,1.7-15.01c-0.78,0.49-1.57,1.11-2.35,1.86  c1.71-5.32,0.65-9.47-1.65-13.1c-1.06,0.95-1.93,2.03-2.61,3.25c0.85-5.71-0.48-10.38-4.42-14.02c-1.02,1.83-1.65,3.4-2.02,4.97  c-1.35-4.87-4.09-7.97-7.78-9.86c-0.44,1.15-0.68,2.3-0.74,3.45c-2.63-3.4-5.92-4.89-9.59-5.31c0.54,4.99,2.65,9.18,7.19,11.97  l-1.34-0.1c1.46,4.94,3.98,8.15,7.64,10.12c0.11,3.37,1.24,6.19,2.9,8.53l-2.29-0.27c0.49,3.81,2.32,6.92,5.27,9.43  c-0.84,3.74-0.76,7.38,0.99,10.86L162.35,0L129.7,56.21c0.91-2.77,0.67-5.54-0.11-8.31c3.04-2.4,4.85-5.58,5.44-9.53l-2.4,0.37  c1.7-2.57,2.71-5.41,2.72-8.63c3.93-2.15,6.39-5.63,7.73-10.11l-1.21,0.03c4.76-3.09,6.53-7.24,7.02-11.76  c-3.41,0.22-6.65,1.94-9.54,5.27c-0.05-1.13-0.23-2.27-0.54-3.41c-3.13,1.5-6.05,3.8-7.88,9.97c-0.35-1.84-1.08-3.53-2.08-5.11  c-3.78,3.69-5.45,8.22-4.32,13.85l-2.71-2.98c-2.23,3.39-3.16,7.42-1.76,12.62l-1.97-1.6c-2.29,4.67-2.09,9.68,1.44,15.13  c-0.82-0.59-1.71-1.07-2.66-1.27c-0.77,5.7,1.16,10.88,7.26,15.29l-5.28,8.99l11.87-0.06l-2.23,0.8c2.75,3.74,6.39,6.82,14.33,6.67  c-1.29,0.49-2.44,1.18-3.46,2.06c4.33,3.57,9.58,5,16.88,1.71c1.08,0.32,2.06,0.56,3.01,0.75l-3.04,1.96l3.99,1.99l2.12-2.29  l2.39,2.38l3.75-2.13l-3.08-2.02c1.4-0.28,2.52-0.5,3.41-0.91c5.64,2.71,11.28,2.44,16.93-1.44c-0.94-1.06-2.17-1.85-3.63-2.4  c6.64,0.45,11.27-2.03,14.54-6.5l-1.86-0.54l11.07-0.1l-5.21-9.27C207.09,61.84,208.5,56.38,208.12,50.47z M202.98,26.23  l-1.84,17.53C197.38,37.03,199.04,31,202.98,26.23z M198.26,30.52c0.46,0,0.85,0.33,0.93,0.78c0.05,0.25-0.01,0.5-0.15,0.71  c-0.14,0.21-0.36,0.35-0.61,0.4c-0.51,0.1-1.02-0.25-1.11-0.76c-0.05-0.25,0.01-0.5,0.15-0.71c0.14-0.21,0.36-0.35,0.61-0.4  C198.14,30.53,198.2,30.52,198.26,30.52z M196.82,33.33c0.14-0.21,0.36-0.35,0.61-0.4c0.06-0.01,0.12-0.02,0.18-0.02  c0.46,0,0.85,0.33,0.94,0.78c0.05,0.25-0.01,0.5-0.15,0.71c-0.14,0.21-0.36,0.35-0.61,0.4c-0.51,0.09-1.02-0.25-1.11-0.76  C196.62,33.79,196.67,33.54,196.82,33.33z M195.98,32.87c-0.51,0.1-1.02-0.25-1.11-0.76c-0.08-0.4,0.12-0.79,0.45-0.99  C195.64,30.91,196,31,196,31c0.37,0.08,0.66,0.37,0.73,0.75C196.83,32.27,196.49,32.77,195.98,32.87z M196.37,15.48l1.64,14.5  c-0.01,0-0.02,0-0.03,0c-0.4,0.07-0.74,0.3-0.97,0.63c-0.05,0.08-0.1,0.16-0.14,0.25c-0.1-0.1-0.22-0.19-0.35-0.26  C193.22,24.85,193.98,20.11,196.37,15.48z M176.65,8.62l10.9,11.49c-1.39-3.31-1.57-6.48-0.93-9.54l7.08,16.15  c-1.77-0.89-3.6-2.58-5.54-5.42C179.94,19.29,177.22,13.11,176.65,8.62z M182.58,20.33l12.91,10.13c-0.15,0.03-0.31,0.08-0.46,0.18  c-0.17,0.1-0.31,0.23-0.42,0.38C187.08,29.91,184.22,24.61,182.58,20.33z M190.15,30.05l10.71,14.08  C193.94,41.95,190.34,36.35,190.15,30.05z M124.16,44.15l10.71-14.08C134.68,36.37,131.08,41.97,124.16,44.15z M128.16,33.84  c0.11,0.23,0.13,0.49,0.05,0.73c-0.13,0.39-0.49,0.65-0.9,0.65c-0.1,0-0.21-0.02-0.31-0.05c-0.24-0.08-0.44-0.25-0.55-0.48  c-0.11-0.23-0.13-0.49-0.05-0.73c0.13-0.39,0.49-0.65,0.9-0.65c0.1,0,0.21,0.02,0.31,0.05C127.86,33.44,128.05,33.61,128.16,33.84z   M128.15,32.19c0.13-0.39,0.49-0.65,0.9-0.65c0.1,0,0.21,0.02,0.31,0.05c0.24,0.08,0.44,0.25,0.55,0.48  c0.11,0.23,0.13,0.49,0.05,0.73c-0.13,0.39-0.49,0.65-0.9,0.65c-0.1,0-0.21-0.02-0.31-0.05c-0.24-0.08-0.44-0.25-0.55-0.48  C128.08,32.69,128.07,32.43,128.15,32.19z M138.47,10.67c0.65,3.06,0.47,6.23-0.92,9.55l10.9-11.49  c-0.57,4.49-3.28,10.67-11.5,12.67c-1.94,2.85-3.78,4.54-5.54,5.43L138.47,10.67z M142.52,20.43c-1.69,4.38-4.65,9.86-12.65,10.77  c-0.1-0.07-0.21-0.12-0.33-0.16c-0.15-0.05-0.3-0.07-0.45-0.08L142.52,20.43z M128.72,15.58c2.42,4.68,2.99,9.74-0.45,15.6  c-0.04,0.03-0.09,0.05-0.13,0.08c-0.02-0.08-0.05-0.16-0.09-0.24c-0.18-0.36-0.49-0.63-0.87-0.76c-0.08-0.03-0.16-0.05-0.24-0.06  L128.72,15.58z M125.78,31.39c0.13-0.39,0.49-0.65,0.9-0.65c0.1,0,0.21,0.02,0.31,0.05c0.24,0.08,0.44,0.25,0.55,0.48  c0.11,0.23,0.13,0.49,0.05,0.73c-0.13,0.39-0.49,0.65-0.9,0.65c-0.1,0-0.21-0.02-0.31-0.05c-0.24-0.08-0.44-0.25-0.55-0.48  C125.72,31.89,125.7,31.63,125.78,31.39z M125.2,31.97c0.03,0.14,0.06,0.27,0.13,0.4c0,0.01,0.01,0.01,0.01,0.02  c0.2,0.64,0.35,1.3,0.46,1.97c0,0.06,0.02,0.12,0.03,0.17c0.42,2.92-0.11,6.08-1.97,9.41L122,26.41  C123.4,28.11,124.52,29.97,125.2,31.97z M117.2,51.39c3.62,1.4,6.29,3.96,8.01,7.69l2.91-10.7c-1.38,0.86-2.8,1.56-4.28,2.02  l-0.06,0.47c-0.24-0.27-0.56-0.45-0.92-0.5c-0.07-0.01-0.14-0.01-0.21-0.01c-0.34,0-0.65,0.12-0.9,0.31l-0.05-0.26l-3.47-12.88  c2.8,2.37,4.94,5.61,5.62,10.78l10.67-9.41c-0.87,3.3-2.34,6.38-5.42,8.84c1.56,5.98,0.03,10.33-2.92,13.93l0.08,0.48l-1.18,2.11  l-0.6-1.05l-0.27-0.44L117.2,51.39z M124.51,53.41c0.15,0.2,0.22,0.45,0.18,0.71c-0.07,0.51-0.55,0.89-1.07,0.81  c-0.25-0.03-0.48-0.17-0.63-0.37c-0.15-0.2-0.22-0.45-0.18-0.71c0.04-0.26,0.18-0.49,0.39-0.64c0.09-0.04,0.18-0.08,0.26-0.13  c0.09-0.03,0.19-0.05,0.3-0.05c0.04,0,0.09,0,0.13,0.01C124.14,53.08,124.36,53.21,124.51,53.41z M124.21,51.74  c0.06-0.47,0.47-0.82,0.94-0.82c0.04,0,0.09,0,0.13,0.01c0.25,0.03,0.48,0.17,0.63,0.37c0.15,0.2,0.22,0.45,0.18,0.71  c-0.07,0.51-0.55,0.88-1.07,0.81c-0.25-0.03-0.48-0.17-0.63-0.37C124.24,52.24,124.18,51.99,124.21,51.74z M123.61,51.98  c-0.04,0.26-0.18,0.48-0.38,0.63c-0.09,0.04-0.18,0.08-0.27,0.14c-0.13,0.04-0.28,0.06-0.43,0.04c-0.25-0.03-0.48-0.17-0.63-0.37  c-0.15-0.2-0.22-0.45-0.18-0.71c0.06-0.47,0.47-0.82,0.94-0.82c0.04,0,0.09,0,0.13,0.01c0.25,0.03,0.48,0.17,0.63,0.37  C123.57,51.47,123.64,51.72,123.61,51.98z M129.24,75.95c5.79-1.9,10.97-0.68,15.5,3.57c-0.3,0.23-0.51,0.56-0.58,0.94  L129.24,75.95z M176.84,78.52c0-0.53,0.43-0.95,0.95-0.95c0.53,0,0.95,0.43,0.95,0.95s-0.43,0.95-0.95,0.95  C177.26,79.48,176.84,79.05,176.84,78.52z M177.66,80.76c0,0.53-0.43,0.95-0.95,0.95c-0.53,0-0.95-0.43-0.95-0.95  c0-0.53,0.43-0.95,0.95-0.95C177.23,79.81,177.66,80.23,177.66,80.76z M179.2,79.81c0.53,0,0.95,0.43,0.95,0.95  c0,0.53-0.43,0.95-0.95,0.95c-0.53,0-0.95-0.43-0.95-0.95C178.25,80.23,178.68,79.81,179.2,79.81z M179.29,78.37  c-0.08-0.75-0.69-1.33-1.45-1.36l1.12-2.1l3.75,0.02L179.29,78.37z M178.11,75.16c-4.67-0.26-9.25,1.8-12.44,5.94l-0.85-0.46  l-2.53,3.34l-2.4-3.3l-0.76,0.38c-4.29-4.73-8.33-5.76-12.34-5.77l-0.17-0.3l31.67-0.03L178.11,75.16z M147.38,77.12  c-0.14-0.05-0.29-0.08-0.45-0.08c-0.73,0-1.35,0.52-1.49,1.22l-3.28-3.33l3.89,0.05L147.38,77.12z M146.92,79.52  c-0.53,0-0.95-0.43-0.95-0.95c0-0.53,0.43-0.95,0.95-0.95c0.53,0,0.95,0.43,0.95,0.95C147.88,79.09,147.45,79.52,146.92,79.52z   M148.19,79.81c0.53,0,0.95,0.43,0.95,0.95c0,0.53-0.43,0.95-0.95,0.95s-0.95-0.43-0.95-0.95  C147.24,80.23,147.67,79.81,148.19,79.81z M146.65,80.76c0,0.53-0.43,0.95-0.95,0.95c-0.53,0-0.95-0.43-0.95-0.95  c0-0.53,0.43-0.95,0.95-0.95C146.22,79.81,146.65,80.23,146.65,80.76z M140.11,84.51c1.27-1.01,2.84-1.84,4.87-2.36  c0.22,0.11,0.46,0.18,0.72,0.18c0.53,0,0.99-0.26,1.27-0.66c0.28,0.38,0.72,0.62,1.22,0.62c0.51,0,0.96-0.26,1.24-0.65  c2.95,0.05,5.7,0.94,8.23,2.87H140.11z M163.89,86.25c-0.23,1.46-3.12,1.37-3.09-0.14l-13.32-10.35c5.1,0.35,10.73,2.76,13.56,9.78  c1.08-0.46,2.53-0.37,2.77,0.35c0.69-5.32,8.94-11.04,13.64-10.21L163.89,86.25z M184.93,84.4l-17.62-0.02  c2.25-1.7,4.92-2.69,8.08-2.91c0.26,0.47,0.75,0.8,1.33,0.8c0.51,0,0.97-0.26,1.24-0.65c0.28,0.4,0.73,0.66,1.26,0.66  c0.32,0,0.61-0.1,0.86-0.27C181.86,82.54,183.47,83.34,184.93,84.4z M195.85,75.85l-15.21,4.42c-0.1-0.3-0.28-0.55-0.53-0.73  C184.35,75.17,189.63,74.03,195.85,75.85z M203.34,73.51h-40.98h-40.98l18.81-32.81h-0.05l22.13-38.16l20.53,35.3l0,0l0.31,0.54  l1.35,2.31h-0.01L203.34,73.51z M199.66,64.29l-1.05-1.83l0.22-1.05c-2.95-3.6-4.38-7.8-2.82-13.78c-3.09-2.46-4.55-5.54-5.43-8.84  l10.59,9.43c0.37-5.06,2.77-8.37,5.69-10.78l-3.59,12.84l-0.06,0.19c-0.24-0.17-0.54-0.27-0.86-0.27c-0.47,0-0.89,0.22-1.16,0.56  l-0.13-0.61c-1.48-0.46-2.71-0.98-4.09-1.84l2.78,10.59c0.64-1.39,1.41-2.61,2.31-3.67c0.23-0.15,0.43-0.36,0.55-0.61  c1.41-1.47,3.1-2.59,5.1-3.37l-6.97,11.31L199.66,64.29z M201.27,52.97c0.53,0,0.95,0.43,0.95,0.95c0,0.53-0.43,0.95-0.95,0.95  c-0.53,0-0.95-0.43-0.95-0.95C200.32,53.4,200.75,52.97,201.27,52.97z M199.86,52.64c-0.53,0-0.95-0.43-0.95-0.95  c0-0.53,0.43-0.95,0.95-0.95s0.95,0.43,0.95,0.95C200.81,52.21,200.39,52.64,199.86,52.64z M201.41,51.69  c0-0.53,0.43-0.95,0.95-0.95c0.53,0,0.95,0.43,0.95,0.95c0,0.53-0.43,0.95-0.95,0.95C201.83,52.64,201.41,52.21,201.41,51.69z"></path></g></svg>